solid OpenSCAD_Model
  facet normal -0 0 -1
    outer loop
      vertex -14.1421 14.1421 0
      vertex 14.1421 14.1421 0
      vertex -14.1421 -14.1421 0
    endloop
  endfacet
  facet normal 0 0 -1
    outer loop
      vertex -14.1421 -14.1421 0
      vertex 14.1421 14.1421 0
      vertex 14.1421 -14.1421 0
    endloop
  endfacet
  facet normal -6.28037e-17 1 0
    outer loop
      vertex -14.1421 14.1421 0
      vertex -14.1421 14.1421 20
      vertex 14.1421 14.1421 0
    endloop
  endfacet
  facet normal -6.28037e-17 1 0
    outer loop
      vertex 14.1421 14.1421 0
      vertex -14.1421 14.1421 20
      vertex 14.1421 14.1421 20
    endloop
  endfacet
  facet normal -1 -6.28037e-17 -0
    outer loop
      vertex -14.1421 14.1421 0
      vertex -14.1421 -14.1421 0
      vertex -14.1421 14.1421 20
    endloop
  endfacet
  facet normal -1 -6.28037e-17 0
    outer loop
      vertex -14.1421 14.1421 20
      vertex -14.1421 -14.1421 0
      vertex -14.1421 -14.1421 20
    endloop
  endfacet
  facet normal 6.28037e-17 -1 0
    outer loop
      vertex -14.1421 -14.1421 20
      vertex -14.1421 -14.1421 0
      vertex 14.1421 -14.1421 0
    endloop
  endfacet
  facet normal 6.28037e-17 -1 0
    outer loop
      vertex 14.1421 -14.1421 20
      vertex -14.1421 -14.1421 20
      vertex 14.1421 -14.1421 0
    endloop
  endfacet
  facet normal 1 6.28037e-17 0
    outer loop
      vertex 14.1421 -14.1421 0
      vertex 14.1421 14.1421 0
      vertex 14.1421 14.1421 20
    endloop
  endfacet
  facet normal 1 6.28037e-17 -0
    outer loop
      vertex 14.1421 -14.1421 20
      vertex 14.1421 -14.1421 0
      vertex 14.1421 14.1421 20
    endloop
  endfacet
  facet normal -0 0 1
    outer loop
      vertex -13.1522 -13.1522 20
      vertex -14.1421 14.1421 20
      vertex -14.1421 -14.1421 20
    endloop
  endfacet
  facet normal 0 0 1
    outer loop
      vertex -13.1522 13.1522 20
      vertex 14.1421 14.1421 20
      vertex -14.1421 14.1421 20
    endloop
  endfacet
  facet normal -0 0 1
    outer loop
      vertex 14.1421 -14.1421 20
      vertex -13.1522 -13.1522 20
      vertex -14.1421 -14.1421 20
    endloop
  endfacet
  facet normal -0 0 1
    outer loop
      vertex 13.1522 13.1522 20
      vertex 14.1421 14.1421 20
      vertex -13.1522 13.1522 20
    endloop
  endfacet
  facet normal 0 0 1
    outer loop
      vertex -13.1522 -13.1522 20
      vertex -13.1522 13.1522 20
      vertex -14.1421 14.1421 20
    endloop
  endfacet
  facet normal 0 0 1
    outer loop
      vertex 14.1421 -14.1421 20
      vertex 14.1421 14.1421 20
      vertex 13.1522 13.1522 20
    endloop
  endfacet
  facet normal 0 0 1
    outer loop
      vertex 14.1421 -14.1421 20
      vertex 13.1522 -13.1522 20
      vertex -13.1522 -13.1522 20
    endloop
  endfacet
  facet normal 0 0 1
    outer loop
      vertex 14.1421 -14.1421 20
      vertex 13.1522 13.1522 20
      vertex 13.1522 -13.1522 20
    endloop
  endfacet
  facet normal 1 6.75309e-17 0
    outer loop
      vertex -13.1522 13.1522 20
      vertex -13.1522 -13.1522 20
      vertex -13.1522 -13.1522 1.4
    endloop
  endfacet
  facet normal 1 6.75309e-17 0
    outer loop
      vertex -13.1522 13.1522 1.4
      vertex -13.1522 13.1522 20
      vertex -13.1522 -13.1522 1.4
    endloop
  endfacet
  facet normal -6.75309e-17 1 0
    outer loop
      vertex 13.1522 -13.1522 20
      vertex 13.1522 -13.1522 1.4
      vertex -13.1522 -13.1522 20
    endloop
  endfacet
  facet normal -6.75309e-17 1 0
    outer loop
      vertex -13.1522 -13.1522 20
      vertex 13.1522 -13.1522 1.4
      vertex -13.1522 -13.1522 1.4
    endloop
  endfacet
  facet normal -1 -6.75309e-17 0
    outer loop
      vertex 13.1522 -13.1522 20
      vertex 13.1522 13.1522 20
      vertex 13.1522 -13.1522 1.4
    endloop
  endfacet
  facet normal -1 -6.75309e-17 0
    outer loop
      vertex 13.1522 -13.1522 1.4
      vertex 13.1522 13.1522 20
      vertex 13.1522 13.1522 1.4
    endloop
  endfacet
  facet normal 6.75309e-17 -1 0
    outer loop
      vertex 13.1522 13.1522 1.4
      vertex 13.1522 13.1522 20
      vertex -13.1522 13.1522 20
    endloop
  endfacet
  facet normal 6.75309e-17 -1 0
    outer loop
      vertex -13.1522 13.1522 1.4
      vertex 13.1522 13.1522 1.4
      vertex -13.1522 13.1522 20
    endloop
  endfacet
  facet normal 0 0 1
    outer loop
      vertex -13.1522 -13.1522 1.4
      vertex 13.1522 -13.1522 1.4
      vertex 13.1522 13.1522 1.4
    endloop
  endfacet
  facet normal 0 0 1
    outer loop
      vertex -13.1522 13.1522 1.4
      vertex -13.1522 -13.1522 1.4
      vertex 13.1522 13.1522 1.4
    endloop
  endfacet
  facet normal -0 0 -1
    outer loop
      vertex 30.8579 14.1421 0
      vertex 59.1421 14.1421 0
      vertex 30.8579 -14.1421 0
    endloop
  endfacet
  facet normal 0 0 -1
    outer loop
      vertex 30.8579 -14.1421 0
      vertex 59.1421 14.1421 0
      vertex 59.1421 -14.1421 0
    endloop
  endfacet
  facet normal -6.28037e-17 1 0
    outer loop
      vertex 30.8579 14.1421 0
      vertex 30.8579 14.1421 2.1
      vertex 59.1421 14.1421 0
    endloop
  endfacet
  facet normal -6.28037e-17 1 0
    outer loop
      vertex 59.1421 14.1421 0
      vertex 30.8579 14.1421 2.1
      vertex 59.1421 14.1421 2.1
    endloop
  endfacet
  facet normal -1 -1.25607e-16 -0
    outer loop
      vertex 30.8579 14.1421 0
      vertex 30.8579 -14.1421 0
      vertex 30.8579 14.1421 2.1
    endloop
  endfacet
  facet normal -1 -1.25607e-16 0
    outer loop
      vertex 30.8579 14.1421 2.1
      vertex 30.8579 -14.1421 0
      vertex 30.8579 -14.1421 2.1
    endloop
  endfacet
  facet normal 6.28037e-17 -1 0
    outer loop
      vertex 30.8579 -14.1421 2.1
      vertex 30.8579 -14.1421 0
      vertex 59.1421 -14.1421 0
    endloop
  endfacet
  facet normal 6.28037e-17 -1 0
    outer loop
      vertex 59.1421 -14.1421 2.1
      vertex 30.8579 -14.1421 2.1
      vertex 59.1421 -14.1421 0
    endloop
  endfacet
  facet normal 1 2.51215e-16 0
    outer loop
      vertex 59.1421 -14.1421 0
      vertex 59.1421 14.1421 0
      vertex 59.1421 14.1421 2.1
    endloop
  endfacet
  facet normal 1 2.51215e-16 -0
    outer loop
      vertex 59.1421 -14.1421 2.1
      vertex 59.1421 -14.1421 0
      vertex 59.1421 14.1421 2.1
    endloop
  endfacet
  facet normal -0 0 1
    outer loop
      vertex 32.4842 -12.5158 2.1
      vertex 30.8579 14.1421 2.1
      vertex 30.8579 -14.1421 2.1
    endloop
  endfacet
  facet normal 0 0 1
    outer loop
      vertex 32.4842 12.5158 2.1
      vertex 59.1421 14.1421 2.1
      vertex 30.8579 14.1421 2.1
    endloop
  endfacet
  facet normal -0 0 1
    outer loop
      vertex 59.1421 -14.1421 2.1
      vertex 32.4842 -12.5158 2.1
      vertex 30.8579 -14.1421 2.1
    endloop
  endfacet
  facet normal -0 0 1
    outer loop
      vertex 57.5158 12.5158 2.1
      vertex 59.1421 14.1421 2.1
      vertex 32.4842 12.5158 2.1
    endloop
  endfacet
  facet normal 0 0 1
    outer loop
      vertex 32.4842 -12.5158 2.1
      vertex 32.4842 12.5158 2.1
      vertex 30.8579 14.1421 2.1
    endloop
  endfacet
  facet normal 0 0 1
    outer loop
      vertex 59.1421 -14.1421 2.1
      vertex 59.1421 14.1421 2.1
      vertex 57.5158 12.5158 2.1
    endloop
  endfacet
  facet normal 0 0 1
    outer loop
      vertex 59.1421 -14.1421 2.1
      vertex 57.5158 -12.5158 2.1
      vertex 32.4842 -12.5158 2.1
    endloop
  endfacet
  facet normal 0 0 1
    outer loop
      vertex 59.1421 -14.1421 2.1
      vertex 57.5158 12.5158 2.1
      vertex 57.5158 -12.5158 2.1
    endloop
  endfacet
  facet normal -1 -2.83859e-16 -0
    outer loop
      vertex 32.4842 12.5158 2.1
      vertex 32.4842 -12.5158 2.1
      vertex 32.4842 12.5158 5.1
    endloop
  endfacet
  facet normal -1 -2.83859e-16 0
    outer loop
      vertex 32.4842 12.5158 5.1
      vertex 32.4842 -12.5158 2.1
      vertex 32.4842 -12.5158 5.1
    endloop
  endfacet
  facet normal 1.41929e-16 -1 0
    outer loop
      vertex 32.4842 -12.5158 5.1
      vertex 32.4842 -12.5158 2.1
      vertex 57.5158 -12.5158 2.1
    endloop
  endfacet
  facet normal 1.41929e-16 -1 0
    outer loop
      vertex 57.5158 -12.5158 5.1
      vertex 32.4842 -12.5158 5.1
      vertex 57.5158 -12.5158 2.1
    endloop
  endfacet
  facet normal 1 2.83859e-16 0
    outer loop
      vertex 57.5158 -12.5158 2.1
      vertex 57.5158 12.5158 2.1
      vertex 57.5158 12.5158 5.1
    endloop
  endfacet
  facet normal 1 2.83859e-16 -0
    outer loop
      vertex 57.5158 -12.5158 5.1
      vertex 57.5158 -12.5158 2.1
      vertex 57.5158 12.5158 5.1
    endloop
  endfacet
  facet normal -1.41929e-16 1 0
    outer loop
      vertex 32.4842 12.5158 2.1
      vertex 32.4842 12.5158 5.1
      vertex 57.5158 12.5158 2.1
    endloop
  endfacet
  facet normal -1.41929e-16 1 0
    outer loop
      vertex 57.5158 12.5158 2.1
      vertex 32.4842 12.5158 5.1
      vertex 57.5158 12.5158 5.1
    endloop
  endfacet
  facet normal -0 0 1
    outer loop
      vertex 33.8277 -11.1723 5.1
      vertex 32.4842 12.5158 5.1
      vertex 32.4842 -12.5158 5.1
    endloop
  endfacet
  facet normal 0 0 1
    outer loop
      vertex 33.8277 11.1723 5.1
      vertex 57.5158 12.5158 5.1
      vertex 32.4842 12.5158 5.1
    endloop
  endfacet
  facet normal -0 0 1
    outer loop
      vertex 57.5158 -12.5158 5.1
      vertex 33.8277 -11.1723 5.1
      vertex 32.4842 -12.5158 5.1
    endloop
  endfacet
  facet normal -0 0 1
    outer loop
      vertex 56.1723 11.1723 5.1
      vertex 57.5158 12.5158 5.1
      vertex 33.8277 11.1723 5.1
    endloop
  endfacet
  facet normal 0 0 1
    outer loop
      vertex 33.8277 -11.1723 5.1
      vertex 33.8277 11.1723 5.1
      vertex 32.4842 12.5158 5.1
    endloop
  endfacet
  facet normal 0 0 1
    outer loop
      vertex 57.5158 -12.5158 5.1
      vertex 57.5158 12.5158 5.1
      vertex 56.1723 11.1723 5.1
    endloop
  endfacet
  facet normal 0 0 1
    outer loop
      vertex 57.5158 -12.5158 5.1
      vertex 56.1723 -11.1723 5.1
      vertex 33.8277 -11.1723 5.1
    endloop
  endfacet
  facet normal 0 0 1
    outer loop
      vertex 57.5158 -12.5158 5.1
      vertex 56.1723 11.1723 5.1
      vertex 56.1723 -11.1723 5.1
    endloop
  endfacet
  facet normal 1 3.17993e-16 0
    outer loop
      vertex 33.8277 11.1723 5.1
      vertex 33.8277 -11.1723 5.1
      vertex 33.8277 -11.1723 2.1
    endloop
  endfacet
  facet normal 1 3.17993e-16 0
    outer loop
      vertex 33.8277 11.1723 2.1
      vertex 33.8277 11.1723 5.1
      vertex 33.8277 -11.1723 2.1
    endloop
  endfacet
  facet normal -7.94984e-17 1 0
    outer loop
      vertex 56.1723 -11.1723 5.1
      vertex 56.1723 -11.1723 2.1
      vertex 33.8277 -11.1723 5.1
    endloop
  endfacet
  facet normal -7.94984e-17 1 0
    outer loop
      vertex 33.8277 -11.1723 5.1
      vertex 56.1723 -11.1723 2.1
      vertex 33.8277 -11.1723 2.1
    endloop
  endfacet
  facet normal -1 -3.17993e-16 0
    outer loop
      vertex 56.1723 -11.1723 5.1
      vertex 56.1723 11.1723 5.1
      vertex 56.1723 -11.1723 2.1
    endloop
  endfacet
  facet normal -1 -3.17993e-16 0
    outer loop
      vertex 56.1723 -11.1723 2.1
      vertex 56.1723 11.1723 5.1
      vertex 56.1723 11.1723 2.1
    endloop
  endfacet
  facet normal 7.94984e-17 -1 0
    outer loop
      vertex 56.1723 11.1723 2.1
      vertex 56.1723 11.1723 5.1
      vertex 33.8277 11.1723 5.1
    endloop
  endfacet
  facet normal 7.94984e-17 -1 0
    outer loop
      vertex 33.8277 11.1723 2.1
      vertex 56.1723 11.1723 2.1
      vertex 33.8277 11.1723 5.1
    endloop
  endfacet
  facet normal 0 0 1
    outer loop
      vertex 56.1723 11.1723 2.1
      vertex 33.8277 11.1723 2.1
      vertex 33.8277 -11.1723 2.1
    endloop
  endfacet
  facet normal -0 0 1
    outer loop
      vertex 56.1723 -11.1723 2.1
      vertex 56.1723 11.1723 2.1
      vertex 33.8277 -11.1723 2.1
    endloop
  endfacet
endsolid OpenSCAD_Model
